<svg id="Livello_1" data-name="Livello 1" xmlns="http://www.w3.org/2000/svg" viewBox="0 0 1500 434.09"><defs><style>.cls-1{fill:#fff;}.cls-2{fill:#fff;}</style></defs><path class="cls-1" d="M675.81,164h50.05V127.42H675.81Zm-88.38,3.19c0-32.3-18.1-51.11-43.3-51.11-25.91,0-44.72,18.81-44.72,51.11s18.81,53.24,44.72,53.24c24.85,0,43.3-20.59,43.3-53.24m0-88h46.86V257H593.47l-5.33-24.13c-7.45,17-26.26,29.1-49.69,29.1-52.53,0-87.31-41.18-87.31-94.77,0-51.47,34.07-92.64,85.53-92.64,32,0,46.86,16.68,50.76,27Zm88.38,27.69h50.05v-38H675.81Zm0,150.14h50.05V232.85H675.81Zm0-44.72h50.05V184.57H675.81Zm777.34-45.08c0-32.3-18.11-51.11-43.31-51.11-25.91,0-44.72,18.81-44.72,51.11s18.81,53.24,44.72,53.24c24.85,0,43.31-20.59,43.31-53.24m46.85-88V257h-40.82l-5.32-24.13c-7.46,17-26.27,29.1-49.7,29.1-52.53,0-87.31-41.18-87.31-94.77,0-51.47,34.07-92.64,85.54-92.64,31.94,0,46.85,16.68,50.76,27V79.15ZM1221.72,198.06l-44-118.91h-52.53l72,177.83h48.27L1314,79.15h-50Zm-365.24-14.2L751.77,0h-76V48.27h50.05L844.77,257h61.41V0h-49.7Zm219-15.62c0-33.71-20.94-50.4-44.72-50.4-23.07,0-44.72,16.69-44.72,50.4,0,33,21.65,50,44.72,50,23.78,0,44.72-17,44.72-50m48.63,0c0,54.31-40.11,94.06-93.35,94.06-52.89,0-92.64-39.75-92.64-94.06,0-54.66,39.75-94.06,92.64-94.06,53.24,0,93.35,39.4,93.35,94.06M356,198.06,312.35,79.15H259.47L331.87,257h47.92L448.65,79.15h-50.4ZM50.05,93.35H0v36.56H50.05Zm0-48.27H0V72.76H50.05Zm0,105.41H0v38H50.05ZM50.05.35H0V24.49H50.05ZM0,257H167.53V209.06H0Zm191.32,0h47.56V79.16H191.32ZM190.61.35h49V48.27h-49Z"/><path class="cls-2" d="M0,363.75H10.93V391H39.15V363.75H50.07v69.54H39.15v-32H10.93v32H0Z"/><path class="cls-2" d="M114.75,411.14H79.29c0,7.35,4.27,13.81,12.41,13.81a14.42,14.42,0,0,0,13.12-8.45l8.84,3.48c-4.86,9.44-10.53,14.11-22,14.11-16.48,0-23.34-13.91-23.34-25.83s6.86-25.83,23.34-25.83c16,0,23,13,23,24.24ZM79.48,402.5h24.35c-.9-5.57-4.67-10.93-12.13-10.93C84.85,391.57,80.58,396.24,79.48,402.5Z"/><path class="cls-2" d="M149.46,402.5h8.64v-2.19c0-6.26-4.47-8.74-9.74-8.74a9.65,9.65,0,0,0-9.34,6.66l-9.44-2c2.09-8.45,9.24-13.81,18.88-13.81,11.62,0,20,5.07,20,19.77v31.09h-8.74l-1-6.55c-3.28,4.56-8.44,7.35-15.5,7.35-8.34,0-15.4-4.77-15.4-15.2S136.64,402.5,149.46,402.5ZM145,425c6.36,0,13.12-4.07,13.12-12.72v-1.09h-9c-6.36,0-10.34,3-10.34,7.75C138.72,422.27,140.61,425,145,425Z"/><path class="cls-2" d="M197.72,363v70.34H187.39V363Z"/><path class="cls-2" d="M212,383.22h8.34V369.41L230.67,363v20.27h13v9.14h-13V416.8c0,5.67,2.09,8.15,6.66,8.15a8,8,0,0,0,4.77-1.39l2.68,8.74a17.93,17.93,0,0,1-8.05,1.79c-9.43,0-16.39-5.57-16.39-17.88V392.36H212Z"/><path class="cls-2" d="M270.23,363v28.82c3.58-5.17,9.34-9.34,16.89-9.34,9.24,0,14.8,5,14.8,15.6v35.26H291.59V400.71c0-7.65-3.18-9.14-7.85-9.14-5.66,0-13.51,7.25-13.51,20.56v21.16H259.9V363Z"/><path class="cls-2" d="M357.72,361.87a7.14,7.14,0,0,1,7.16,7.25,7.16,7.16,0,0,1-14.31,0A7.14,7.14,0,0,1,357.72,361.87Zm5.17,21.35v50.07H352.56V383.22Z"/><path class="cls-2" d="M393.27,383.22v8.55a18.64,18.64,0,0,1,16.19-9.34c8.75,0,14.71,5.26,14.71,15v35.86H413.84V400.71c0-6.76-3.09-9.14-7.75-9.14-6.46,0-12.82,7.65-12.82,21.46v20.26H382.94V383.22Z"/><path class="cls-2" d="M454.48,383.22v8.55a18.62,18.62,0,0,1,16.19-9.34c8.74,0,14.7,5.26,14.7,15v35.86H475V400.71c0-6.76-3.08-9.14-7.75-9.14-6.46,0-12.81,7.65-12.81,21.46v20.26H444.15V383.22Z"/><path class="cls-2" d="M526.76,382.43c15.5,0,24.63,11.72,24.63,25.83s-9.13,25.83-24.63,25.83-24.64-11.72-24.64-25.83S511.26,382.43,526.76,382.43Zm0,42.52c9,0,13.71-8.25,13.71-16.69s-4.67-16.69-13.71-16.69-13.71,8.25-13.71,16.69S517.72,425,526.76,425Z"/><path class="cls-2" d="M571.19,383.22l10.92,36,10.93-36h10.53L587,433.29h-9.74l-16.59-50.07Z"/><path class="cls-2" d="M634.48,402.5h8.64v-2.19c0-6.26-4.47-8.74-9.73-8.74a9.64,9.64,0,0,0-9.34,6.66l-9.44-2c2.08-8.45,9.24-13.81,18.87-13.81,11.63,0,20,5.07,20,19.77v31.09h-8.74l-1-6.55c-3.28,4.56-8.45,7.35-15.5,7.35-8.35,0-15.4-4.77-15.4-15.2S621.66,402.5,634.48,402.5ZM630,425c6.36,0,13.11-4.07,13.11-12.72v-1.09h-9c-6.36,0-10.33,3-10.33,7.75C623.75,422.27,625.64,425,630,425Z"/><path class="cls-2" d="M666.15,383.22h8.35V369.41L684.83,363v20.27h13v9.14h-13V416.8c0,5.67,2.09,8.15,6.66,8.15a8,8,0,0,0,4.77-1.39l2.68,8.74a17.93,17.93,0,0,1-8.05,1.79c-9.43,0-16.39-5.57-16.39-17.88V392.36h-8.35Z"/><path class="cls-2" d="M719,361.87a7.14,7.14,0,0,1,7.15,7.25,7.15,7.15,0,0,1-14.3,0A7.13,7.13,0,0,1,719,361.87Zm5.16,21.35v50.07H713.81V383.22Z"/><path class="cls-2" d="M765.34,382.43c15.5,0,24.64,11.72,24.64,25.83s-9.14,25.83-24.64,25.83-24.64-11.72-24.64-25.83S749.84,382.43,765.34,382.43Zm0,42.52c9,0,13.71-8.25,13.71-16.69s-4.67-16.69-13.71-16.69-13.71,8.25-13.71,16.69S756.3,425,765.34,425Z"/><path class="cls-2" d="M817.58,383.22v8.55a18.62,18.62,0,0,1,16.19-9.34c8.74,0,14.7,5.26,14.7,15v35.86H838.14V400.71c0-6.76-3.08-9.14-7.75-9.14-6.46,0-12.81,7.65-12.81,21.46v20.26H807.25V383.22Z"/><path class="cls-2" d="M893.14,383.22h8.35V369.41L911.82,363v20.27h13v9.14h-13V416.8c0,5.67,2.09,8.15,6.66,8.15a8,8,0,0,0,4.77-1.39l2.68,8.74a17.93,17.93,0,0,1-8,1.79c-9.44,0-16.39-5.57-16.39-17.88V392.36h-8.35Z"/><path class="cls-2" d="M951.38,363v28.82c3.58-5.17,9.34-9.34,16.89-9.34,9.24,0,14.8,5,14.8,15.6v35.26H972.74V400.71c0-7.65-3.18-9.14-7.85-9.14-5.66,0-13.51,7.25-13.51,20.56v21.16H941.05V363Z"/><path class="cls-2" d="M1021.24,402.5h8.64v-2.19c0-6.26-4.47-8.74-9.73-8.74a9.64,9.64,0,0,0-9.34,6.66l-9.44-2c2.09-8.45,9.24-13.81,18.88-13.81,11.62,0,20,5.07,20,19.77v31.09h-8.74l-1-6.55c-3.28,4.56-8.45,7.35-15.5,7.35-8.35,0-15.4-4.77-15.4-15.2S1008.42,402.5,1021.24,402.5ZM1016.77,425c6.36,0,13.11-4.07,13.11-12.72v-1.09h-9c-6.35,0-10.33,3-10.33,7.75C1010.51,422.27,1012.4,425,1016.77,425Z"/><path class="cls-2" d="M1052.91,383.22h8.35V369.41l10.33-6.46v20.27h13v9.14h-13V416.8c0,5.67,2.09,8.15,6.66,8.15a8,8,0,0,0,4.77-1.39l2.68,8.74a17.93,17.93,0,0,1-8,1.79c-9.43,0-16.39-5.57-16.39-17.88V392.36h-8.35Z"/><path class="cls-2" d="M1142.69,383.22v8.55c4.08-6.26,9-9.34,15.11-9.34,6.75,0,12.31,4.07,13.8,10.33,3.48-6.56,9.15-10.33,15.6-10.33,9.14,0,14.31,6.26,14.31,15v35.86h-10.33V399.71c0-5.46-3-8.14-7.36-8.14-6.16,0-11.72,7.85-11.72,21.66v20.06h-10.33V399.71c0-5.46-3-8.14-7.35-8.14-6.26,0-11.73,7.85-11.73,22.75v19h-10.33V383.22Z"/><path class="cls-2" d="M1239.77,402.5h8.65v-2.19c0-6.26-4.47-8.74-9.74-8.74a9.65,9.65,0,0,0-9.34,6.66l-9.44-2c2.09-8.45,9.24-13.81,18.88-13.81,11.62,0,20,5.07,20,19.77v31.09H1250l-1-6.55c-3.28,4.56-8.44,7.35-15.5,7.35-8.34,0-15.4-4.77-15.4-15.2S1227,402.5,1239.77,402.5ZM1235.3,425c6.36,0,13.12-4.07,13.12-12.72v-1.09h-9c-6.36,0-10.34,3-10.34,7.75C1229,422.27,1230.93,425,1235.3,425Z"/><path class="cls-2" d="M1271.45,383.22h8.34V369.41l10.33-6.46v20.27h13v9.14h-13V416.8c0,5.67,2.09,8.15,6.66,8.15a8,8,0,0,0,4.77-1.39l2.68,8.74a17.93,17.93,0,0,1-8,1.79c-9.43,0-16.39-5.57-16.39-17.88V392.36h-8.34Z"/><path class="cls-2" d="M1315.59,383.22h8.34V369.41l10.33-6.46v20.27h13v9.14h-13V416.8c0,5.67,2.09,8.15,6.66,8.15a8,8,0,0,0,4.77-1.39l2.69,8.74a18,18,0,0,1-8.05,1.79c-9.44,0-16.4-5.57-16.4-17.88V392.36h-8.34Z"/><path class="cls-2" d="M1405.72,411.14h-35.47c0,7.35,4.27,13.81,12.42,13.81a14.42,14.42,0,0,0,13.11-8.45l8.84,3.48c-4.87,9.44-10.52,14.11-21.95,14.11-16.49,0-23.35-13.91-23.35-25.83s6.86-25.83,23.35-25.83c16,0,23,13,23,24.24Zm-35.27-8.64h24.34c-.89-5.57-4.67-10.93-12.12-10.93C1375.81,391.57,1371.54,396.24,1370.45,402.5Z"/><path class="cls-2" d="M1422.69,433.29V383.22H1433v8.35c3.48-6,9.44-9.14,14.81-9.14a17.26,17.26,0,0,1,6.35,1.19l-1.78,9.44a11.48,11.48,0,0,0-5.86-1.49c-6.66,0-13.52,7.35-13.52,23.14v18.58Z"/><path class="cls-2" d="M1497.26,390.37l-6.56,5.77a10.87,10.87,0,0,0-8.74-4.57,4.74,4.74,0,0,0-5,5c0,3.58,3.78,5.17,8.94,7.16,6.75,2.58,14,5.56,14,14.5,0,8.65-6.66,15.9-17.39,15.9-10.33,0-16.79-7.16-19.37-13.41l8.74-4.77c2,4.47,5.47,9,11,9,4,0,6.75-2,6.75-6.56,0-4.37-6-5.56-11.91-8.05s-10.73-6.06-10.73-13.7,6.36-14.21,15.39-14.21A17.49,17.49,0,0,1,1497.26,390.37Z"/></svg>
